<?xml version="1.0" standalone="no"?>
<!DOCTYPE svg PUBLIC "-//W3C//DTD SVG 20010904//EN"
 "http://www.w3.org/TR/2001/REC-SVG-20010904/DTD/svg10.dtd">
<svg version="1.0" xmlns="http://www.w3.org/2000/svg"
 width="680.000000pt" height="680.000000pt" viewBox="0 0 680.000000 680.000000"
 preserveAspectRatio="xMidYMid meet">
<metadata>
Created by potrace 1.16, written by Peter Selinger 2001-2019
</metadata>
<g transform="translate(0.000000,680.000000) scale(0.100000,-0.100000)"
fill="#000000" stroke="none">
<path d="M0 3400 l0 -3400 3400 0 3400 0 0 2580 0 2580 -65 0 -65 0 0 -70 0
-70 -35 0 -35 0 0 70 0 70 -65 0 -65 0 0 -35 c0 -33 -2 -35 -35 -35 l-35 0 0
-65 0 -65 35 0 c33 0 35 -2 35 -35 0 -34 1 -35 36 -35 l37 0 -6 -137 c-4 -76
-7 -153 -7 -170 l0 -33 -65 0 -65 0 0 -35 c0 -33 -2 -35 -35 -35 -33 0 -35 -2
-35 -35 0 -33 -2 -35 -35 -35 -32 0 -35 -2 -35 -30 0 -28 3 -30 35 -30 33 0
35 -2 35 -34 0 -32 -3 -35 -32 -38 -29 -3 -33 -7 -36 -35 l-3 -33 -100 0 -99
0 0 -35 c0 -33 -2 -35 -35 -35 -32 0 -35 -2 -35 -30 l0 -30 134 0 135 0 3 31
3 30 135 0 135 0 3 -35 3 -36 -70 0 -71 0 0 -35 0 -35 -100 0 -100 0 0 -30 0
-30 -70 0 -70 0 0 -35 0 -35 -135 0 -135 0 0 -35 0 -35 100 0 100 0 0 -35 0
-35 -135 0 -135 0 0 -30 0 -30 205 0 205 0 0 -34 0 -34 -142 -7 c-79 -4 -172
-5 -208 -3 l-65 3 -3 33 -3 32 -87 1 c-48 1 -90 1 -94 0 -5 0 -8 15 -8 34 0
33 -2 35 -35 35 l-35 0 0 100 0 100 -35 0 c-32 0 -35 -2 -35 -30 l0 -30 -205
0 -205 0 0 -35 0 -36 -102 3 -103 3 -3 33 -3 32 -270 0 -270 0 3 33 3 32 270
1 270 0 3 32 3 32 302 2 302 3 3 32 3 32 -68 3 -68 3 -3 33 -3 32 -65 0 -64 0
0 35 c0 33 -2 35 -34 35 -32 0 -35 -3 -38 -31 l-3 -32 -542 -5 -543 -5 0 37 0
36 -70 0 -70 0 0 -35 0 -35 -237 0 c-131 0 -282 3 -335 7 -95 6 -97 6 -100 32
l-3 26 -302 3 -303 2 0 35 c0 34 -1 35 -40 35 -39 0 -40 -1 -40 -35 0 -32 -2
-35 -30 -35 -27 0 -30 3 -30 30 l0 30 -70 0 -70 0 0 -30 0 -30 -134 0 -135 0
-3 33 c-3 28 -6 32 -33 32 -27 0 -30 -4 -33 -32 l-3 -33 -64 0 -64 0 -3 33 -3
32 -67 3 c-68 3 -68 3 -68 32 l0 30 -105 0 -105 0 0 35 c0 33 -2 35 -35 35
-33 0 -35 2 -35 35 l0 35 -65 0 -65 0 0 30 c0 30 0 30 -59 30 -58 0 -60 -1
-63 -27 -2 -17 -7 -1 -12 40 l-8 67 -64 0 -64 0 0 -35 c0 -32 2 -35 30 -35 28
0 30 -3 30 -36 l0 -37 -46 7 c-26 3 -55 6 -65 6 -14 0 -19 7 -19 30 0 27 -3
30 -30 30 -26 0 -30 3 -30 29 0 28 -1 29 -69 35 l-69 7 -7 70 c-7 68 -7 69
-36 69 -25 0 -29 4 -29 30 0 29 0 29 -67 32 -76 3 -67 -14 -71 136 l-2 72 -29
0 c-26 0 -30 4 -33 33 -3 29 -6 32 -35 32 -31 0 -33 2 -33 32 l0 33 65 0 65 0
0 99 0 100 -32 3 -33 3 -3 103 -3 102 -34 0 -35 0 0 68 0 68 -30 2 -30 2 0
-105 0 -105 -35 0 -35 0 0 70 0 70 -30 0 -30 0 0 235 0 235 30 0 30 0 0 -170
0 -170 35 0 35 0 0 70 0 70 35 0 35 0 0 64 0 65 33 3 32 3 3 68 3 67 99 0 100
0 0 -64 0 -65 33 -3 c28 -3 32 -7 35 -35 3 -29 7 -33 33 -33 27 0 29 3 29 35
l0 35 70 0 70 0 0 36 0 35 100 -3 100 -3 0 68 0 67 105 0 105 0 0 35 c0 33 2
35 35 35 33 0 35 2 35 36 0 34 1 35 33 32 l32 -3 3 -67 3 -68 -36 0 c-33 0
-35 -2 -35 -35 0 -33 -2 -35 -35 -35 l-35 0 0 -70 0 -70 -35 0 -35 0 0 -65 0
-65 -29 0 c-26 0 -30 -4 -33 -32 -3 -29 -7 -33 -35 -36 -30 -3 -33 -6 -33 -38
0 -32 -2 -34 -35 -34 -33 0 -35 -2 -35 -32 l0 -33 65 3 65 4 0 -36 c0 -32 -3
-35 -32 -38 -30 -3 -33 -6 -32 -35 0 -18 1 -94 2 -168 l2 -135 30 0 c28 0 30
3 30 35 0 33 2 35 35 35 l35 0 0 170 0 170 35 0 c32 0 35 2 35 30 0 27 3 30
30 30 28 0 30 3 30 35 0 33 2 35 35 35 l34 0 3 68 3 67 33 3 32 3 0 65 0 64
35 0 35 0 0 70 0 70 35 0 35 0 0 70 0 71 68 -3 67 -3 3 -32 c3 -29 7 -33 33
-33 27 0 29 3 29 35 0 33 2 35 35 35 32 0 35 2 35 30 0 28 3 30 35 30 33 0 35
2 35 35 l0 35 70 0 70 0 0 -65 0 -65 65 0 65 0 0 35 0 35 100 0 100 0 0 30 c0
28 -3 30 -35 30 l-36 0 3 68 3 67 203 3 202 2 0 35 0 35 205 0 205 0 0 35 0
35 -365 0 -364 0 -4 -67 -3 -68 -2 68 -2 67 -1230 0 -1230 0 0 -3400z m2173
3043 c-7 -2 -21 -2 -30 0 -10 3 -4 5 12 5 17 0 24 -2 18 -5z m-2033 -1388 c0
-33 2 -35 35 -35 l35 0 0 -100 0 -100 35 0 35 0 0 -70 0 -70 30 0 c27 0 30 -3
30 -30 l0 -30 -65 0 -65 0 0 70 0 70 -30 0 -30 0 0 100 0 100 -35 0 -35 0 0
65 0 65 30 0 c28 0 30 -3 30 -35z m986 -648 c34 -4 34 -4 -3 -3 -36 1 -38 3
-39 36 -1 34 -1 34 3 3 4 -28 8 -32 39 -36z m51 21 c-2 -13 -4 -5 -4 17 -1 22
1 32 4 23 2 -10 2 -28 0 -40z m170 -5 c-3 -10 -5 -2 -5 17 0 19 2 27 5 18 2
-10 2 -26 0 -35z m72 -50 c-1 -23 -2 -24 -6 -6 -2 13 -13 24 -26 26 -18 4 -17
5 6 6 23 1 27 -3 26 -26z m151 -103 l0 -60 64 0 c63 0 64 0 68 -30 5 -36 3
-40 -34 -40 -24 0 -28 -4 -28 -30 0 -28 -3 -30 -35 -30 -34 0 -35 2 -35 36 0
35 -1 36 -30 32 -28 -4 -30 -3 -30 29 0 29 -3 33 -25 33 -22 0 -25 4 -25 35 0
28 4 35 20 35 13 0 20 7 20 19 0 15 -8 21 -32 24 -18 2 -3 5 35 5 l67 2 0 -60z
m-442 13 c-42 -5 -43 -7 -32 -87 6 -40 10 -46 30 -46 19 0 24 5 23 23 -1 16
-2 18 -6 5 -6 -25 -33 -23 -33 2 0 15 7 20 25 20 24 0 25 -2 25 -65 l0 -65 35
0 c32 0 35 -2 35 -30 l0 -30 -65 0 -65 0 0 30 c0 28 -3 30 -35 30 -33 0 -35 2
-35 35 0 33 -2 35 -35 35 -33 0 -35 2 -35 35 0 33 -2 35 -35 35 -33 0 -35 2
-35 35 l0 35 70 0 70 0 0 -35 c0 -31 3 -35 25 -35 22 0 25 4 25 33 0 43 5 47
49 45 l36 -1 -37 -4z m318 -36 l1 -37 -4 35 -4 34 -107 4 -107 3 110 0 110 -1
1 -38z m-269 -19 c-2 -13 -4 -5 -4 17 -1 22 1 32 4 23 2 -10 2 -28 0 -40z
m113 -58 c0 -28 3 -30 35 -30 33 0 35 -2 35 -35 0 -33 2 -35 35 -35 32 0 35
-2 35 -30 l0 -30 -65 0 -65 0 0 35 c0 32 -2 35 -30 35 l-30 0 0 60 c0 57 1 60
25 60 21 0 25 -5 25 -30z m1020 -135 c0 -34 1 -35 38 -35 37 0 38 -1 34 -30
-4 -29 -5 -30 -63 -30 l-59 0 0 35 0 35 -70 0 -70 0 0 30 0 30 95 0 95 0 0
-35z m755 5 c0 -27 -3 -30 -32 -30 -30 0 -33 3 -33 30 0 27 3 30 33 30 29 0
32 -3 32 -30z m243 -47 c-150 -3 -158 -5 -158 -23 0 -19 7 -20 160 -20 l160 0
0 25 0 25 204 0 205 0 3 -32 c3 -29 7 -33 36 -36 28 -3 32 -7 32 -33 l0 -29
135 0 135 0 0 -35 0 -35 -235 0 -235 0 0 35 0 35 -100 0 -100 0 0 35 0 35
-205 0 -205 0 0 30 0 30 163 -2 162 -2 -157 -3z m-1430 -340 c-21 -2 -55 -2
-75 0 -21 2 -4 4 37 4 41 0 58 -2 38 -4z m232 -23 l0 -30 -64 0 c-63 0 -64 0
-68 30 l-5 30 69 0 68 0 0 -30z m610 0 l0 -30 -65 0 -65 0 2 30 c2 30 2 30 65
30 l63 0 0 -30z m-842 -27 c-21 -2 -55 -2 -75 0 -21 2 -4 4 37 4 41 0 58 -2
38 -4z m1052 -43 c0 -28 -3 -30 -35 -30 -31 0 -35 3 -35 25 0 20 -5 25 -24 25
-19 0 -26 -6 -29 -27 -4 -26 -4 -26 -6 5 l-1 32 65 0 65 0 0 -30z m470 -70 c0
-27 -3 -30 -30 -30 -27 0 -30 3 -30 30 0 27 3 30 30 30 27 0 30 -3 30 -30z
m2728 -162 l3 -68 -171 0 -170 0 0 -35 0 -34 -102 -3 -103 -3 -3 -33 c-3 -31
-6 -33 -35 -30 -28 3 -32 7 -35 36 l-3 32 -65 0 -64 0 0 -35 c0 -33 2 -35 35
-35 32 0 35 -2 35 -30 0 -28 -3 -30 -35 -30 -32 0 -35 2 -35 30 l0 30 -141 0
-141 0 4 -30 c4 -28 3 -30 -29 -30 l-33 0 0 65 0 65 -71 0 -70 0 3 33 3 32
100 1 100 2 3 31 3 31 98 0 c54 0 146 3 206 7 l108 6 -5 -36 -4 -37 68 0 68 0
0 35 0 35 205 0 205 0 0 36 c0 34 1 35 33 32 l32 -3 3 -67z m62 -238 c0 -27
-3 -30 -30 -30 -27 0 -30 3 -30 30 0 27 3 30 30 30 27 0 30 -3 30 -30z m-680
-70 c0 -28 3 -30 35 -30 l35 0 0 -70 0 -70 -29 0 c-26 0 -30 4 -33 33 l-3 32
-105 6 c-58 3 -88 6 -67 7 29 2 37 6 37 21 0 15 -8 21 -32 24 -18 2 -3 5 35 5
l67 2 0 35 c0 32 2 35 30 35 27 0 30 -3 30 -30z m-1185 -50 c-170 -3 -295 -6
-277 -8 25 -1 32 -7 32 -22 0 -18 -7 -20 -65 -20 l-65 0 0 30 0 30 343 -2 342
-3 -310 -5z m645 -55 l0 -65 -30 0 c-23 0 -30 5 -30 19 0 10 -3 39 -6 65 l-7
46 37 0 36 0 0 -65z m739 43 c-1 -17 -2 -19 -6 -5 -2 9 -11 17 -18 17 -7 0
-16 -8 -18 -17 -4 -14 -5 -12 -6 5 -1 17 4 22 24 22 20 0 25 -5 24 -22z
m-1266 -35 c-29 -2 -77 -2 -105 0 -29 2 -6 3 52 3 58 0 81 -1 53 -3z m1255 0
c-10 -2 -26 -2 -35 0 -10 3 -2 5 17 5 19 0 27 -2 18 -5z m-2790 -536 c24 -4
24 -4 -5 -6 -31 -1 -33 1 -32 32 2 29 2 29 6 5 3 -20 11 -28 31 -31z m292 -47
c0 -27 -3 -30 -30 -30 -27 0 -30 3 -30 30 0 27 3 30 30 30 27 0 30 -3 30 -30z
m-270 -140 c0 -27 -3 -30 -30 -30 -27 0 -30 3 -30 30 0 27 3 30 30 30 27 0 30
-3 30 -30z m130 -60 l0 -30 -63 0 c-60 0 -64 1 -63 23 1 20 7 23 61 28 33 3
61 6 63 7 1 1 2 -11 2 -28z"/>
<path d="M2131 4043 c-1 -22 2 -23 62 -21 l62 2 -57 3 c-43 3 -58 8 -61 21 -3
12 -5 11 -6 -5z"/>
<path d="M2208 4053 c17 -2 47 -2 65 0 17 2 3 4 -33 4 -36 0 -50 -2 -32 -4z"/>
<path d="M5183 3263 c37 -2 97 -2 135 0 37 2 6 3 -68 3 -74 0 -105 -1 -67 -3z"/>
<path d="M3150 2340 c0 -13 7 -20 20 -20 13 0 20 7 20 20 0 13 -7 20 -20 20
-13 0 -20 -7 -20 -20z"/>
<path d="M3680 6760 l0 -40 -235 0 -235 0 0 -30 0 -30 440 0 440 0 0 70 0 70
-205 0 -205 0 0 -40z"/>
<path d="M2870 6620 l0 -30 -205 0 -205 0 0 -35 0 -35 268 2 267 3 3 33 3 32
100 0 99 0 0 30 0 30 -165 0 -165 0 0 -30z"/>
<path d="M1980 6350 c0 -28 -3 -30 -35 -30 -33 0 -35 -2 -35 -35 l0 -35 65 0
65 0 0 35 c0 33 2 35 35 35 32 0 35 2 35 30 l0 30 -65 0 -65 0 0 -30z m77 -12
c-3 -7 -5 -2 -5 12 0 14 2 19 5 13 2 -7 2 -19 0 -25z"/>
<path d="M1710 6285 c0 -32 2 -35 30 -35 28 0 30 3 30 35 0 32 -2 35 -30 35
-28 0 -30 -3 -30 -35z"/>
<path d="M487 6113 c-4 -3 -7 -35 -7 -69 l0 -63 -32 -3 -33 -3 -3 -67 c-3 -68
-3 -68 -32 -68 -26 0 -30 -4 -30 -29 0 -29 1 -30 64 -36 64 -7 65 -8 68 -39 3
-29 6 -31 36 -28 l32 4 0 -106 0 -106 35 0 35 0 0 -135 0 -135 35 0 35 0 0
-100 0 -100 35 0 35 0 0 -140 0 -140 35 0 c33 0 35 2 35 35 l0 35 65 0 65 0 0
-65 0 -65 35 0 35 0 0 84 c0 46 -3 104 -6 130 -6 43 -9 46 -35 46 -26 0 -29 3
-29 35 0 33 -2 35 -35 35 -33 0 -35 2 -35 34 0 32 -3 35 -32 38 l-33 3 -3 103
-3 102 36 0 35 0 0 70 0 70 35 0 35 0 0 65 0 65 35 0 c32 0 35 2 35 30 0 29 0
29 -67 32 l-68 3 -3 73 -3 72 36 0 c32 0 35 2 35 30 l0 30 -70 0 -70 0 0 35 0
35 -65 0 -65 0 0 -65 0 -65 35 0 35 0 0 -140 0 -140 -40 0 -40 0 0 70 0 70
-30 0 -30 0 0 65 0 65 -35 0 -35 0 0 70 0 70 35 0 c33 0 35 2 35 35 0 33 -2
35 -35 35 l-35 0 0 70 0 70 -28 0 c-16 0 -32 -3 -35 -7z"/>
<path d="M1100 6010 c0 -27 3 -30 30 -30 27 0 30 3 30 30 0 27 -3 30 -30 30
-27 0 -30 -3 -30 -30z"/>
<path d="M1570 6011 c0 -26 -4 -30 -32 -33 -29 -3 -33 -7 -36 -35 -3 -32 -2
-33 32 -33 34 0 36 2 36 35 0 33 2 35 35 35 32 0 35 2 35 30 0 28 -3 30 -35
30 -32 0 -35 -2 -35 -29z"/>
<path d="M827 5973 c-2 -1 -2 -16 1 -33 4 -25 9 -30 33 -30 25 0 29 4 29 29 0
24 -5 29 -30 33 -17 3 -32 3 -33 1z"/>
<path d="M2390 5600 c0 -23 4 -30 20 -30 25 0 27 37 3 43 -14 4 -13 5 4 6 16
1 23 -6 26 -26 4 -26 4 -26 6 5 1 29 -2 32 -29 32 -27 0 -30 -3 -30 -30z"/>
<path d="M1328 5363 c-23 -4 -28 -9 -28 -34 0 -26 3 -29 30 -29 28 0 30 3 30
35 0 19 -1 34 -2 34 -2 -1 -15 -4 -30 -6z"/>
<path d="M890 5201 c0 -24 5 -29 30 -33 36 -5 40 -3 40 34 0 25 -3 28 -35 28
-32 0 -35 -3 -35 -29z"/>
<path d="M1030 5128 c0 -30 3 -33 30 -33 27 0 30 3 30 33 0 29 -3 32 -30 32
-27 0 -30 -3 -30 -32z"/>
<path d="M1230 5125 c0 -33 -2 -35 -35 -35 -32 0 -35 -2 -35 -30 0 -28 3 -30
35 -30 33 0 35 -2 35 -35 0 -33 2 -35 35 -35 l35 0 0 100 0 100 -35 0 c-33 0
-35 -2 -35 -35z"/>
<path d="M550 4996 c0 -35 1 -36 36 -36 34 0 35 1 32 33 -3 28 -7 32 -35 35
-32 3 -33 2 -33 -32z"/>
<path d="M1370 4955 l0 -65 30 0 30 0 0 65 0 65 -30 0 -30 0 0 -65z"/>
<path d="M620 4920 c0 -27 3 -30 30 -30 27 0 30 3 30 30 0 27 -3 30 -30 30
-27 0 -30 -3 -30 -30z"/>
<path d="M1102 4905 c-1 -27 -5 -74 -8 -102 l-7 -53 37 0 36 0 -2 103 c0 56
-3 87 -5 70 -3 -24 -9 -33 -23 -33 -14 0 -20 9 -23 33 -3 23 -4 18 -5 -18z"/>
<path d="M672 4795 c0 -16 2 -22 5 -12 2 9 2 23 0 30 -3 6 -5 -1 -5 -18z"/>
<path d="M1108 4693 c12 -2 30 -2 40 0 9 3 -1 5 -23 4 -22 0 -30 -2 -17 -4z"/>
<path d="M832 4650 c0 -19 2 -27 5 -17 2 9 2 25 0 35 -3 9 -5 1 -5 -18z"/>
<path d="M1230 4660 c0 -16 7 -20 38 -21 l37 -2 -40 -7 -40 -7 38 -2 c35 -1
37 -2 37 -36 l0 -35 59 0 c57 0 60 1 63 28 3 17 7 5 12 -36 9 -63 9 -63 39
-60 27 3 31 7 30 31 -1 15 -1 45 -2 68 l-1 40 -70 -7 -70 -7 0 37 0 36 -65 0
c-58 0 -65 -2 -65 -20z"/>
<path d="M2808 4673 c12 -2 30 -2 40 0 9 3 -1 5 -23 4 -22 0 -30 -2 -17 -4z"/>
<path d="M1570 4550 l0 -70 35 0 c34 0 35 -1 35 -36 l0 -37 46 7 c26 3 71 6
100 6 53 0 54 0 54 30 0 30 0 30 -59 30 -57 0 -60 -1 -64 -27 -2 -16 -5 0 -6
35 l-1 62 -35 0 c-33 0 -35 2 -35 35 0 33 -2 35 -35 35 l-35 0 0 -70z"/>
<path d="M2590 4585 c0 -33 -2 -35 -35 -35 -33 0 -35 -2 -35 -35 0 -32 -2 -35
-30 -35 -28 0 -30 3 -30 35 0 33 -2 35 -35 35 l-35 0 0 -95 c0 -52 0 -98 0
-102 0 -5 29 -9 65 -11 l65 -3 0 36 0 35 134 0 135 0 3 -32 c3 -29 7 -33 36
-36 31 -3 32 -2 32 35 0 36 -2 39 -27 37 -25 -1 -29 3 -33 35 -5 33 -8 36 -37
36 l-33 0 0 67 0 68 -70 0 -70 0 0 -35z"/>
<path d="M2948 4603 c12 -2 30 -2 40 0 9 3 -1 5 -23 4 -22 0 -30 -2 -17 -4z"/>
<path d="M3200 4445 l0 -35 99 0 100 0 3 -32 3 -33 138 -3 137 -3 0 35 0 35
-67 3 -68 3 -3 33 -3 32 -170 0 -169 0 0 -35z"/>
<path d="M1850 4380 c0 -27 3 -30 30 -30 27 0 30 3 30 30 0 27 -3 30 -30 30
-27 0 -30 -3 -30 -30z"/>
<path d="M3778 4403 c7 -3 16 -2 19 1 4 3 -2 6 -13 5 -11 0 -14 -3 -6 -6z"/>
<path d="M3843 4403 c20 -2 54 -2 75 0 20 2 3 4 -38 4 -41 0 -58 -2 -37 -4z"/>
<path d="M3070 4316 c0 -32 2 -34 46 -40 26 -3 71 -6 100 -6 l54 0 0 40 0 40
-100 0 -100 0 0 -34z"/>
<path d="M4327 4343 l-108 -4 3 -30 3 -31 203 -5 202 -5 0 36 0 36 -54 0 c-29
0 -73 2 -97 3 -24 2 -93 2 -152 0z"/>
<path d="M2392 4305 c0 -16 2 -22 5 -12 2 9 2 23 0 30 -3 6 -5 -1 -5 -18z"/>
<path d="M1761 4304 c0 -11 3 -14 6 -6 3 7 2 16 -1 19 -3 4 -6 -2 -5 -13z"/>
<path d="M4830 4245 l0 -35 70 0 70 0 0 35 0 35 -70 0 -70 0 0 -35z"/>
<path d="M5695 3991 c71 -5 90 -9 90 -21 0 -9 -13 -17 -35 -21 -19 -3 27 -7
103 -8 l137 -1 0 30 0 30 -192 -2 c-144 -1 -170 -3 -103 -7z"/>
</g>
</svg>
